# AST/ASF file generated using VICON BodyLanguage
# -----------------------------------------------
:version 1.10
:name VICON
:units
  mass 1.0
  length 0.45
  angle deg
:documentation
   .ast/.asf automatically generated from VICON data using
   VICON BodyBuilder and BodyLanguage model FoxedUp or BRILLIANT.MOD
:root
   order TX TY TZ RX RY RZ
   axis XYZ
   position 0 0 0  
   orientation 0 0 0 
:bonedata
  begin
     id 1 
     name lhipjoint
     direction 0.707368 -0.647095 0.284426 
     length 2.60678 
     axis 0 0 0  XYZ
  end
  begin
     id 2 
     name lfemur
     direction 0.34202 -0.939693 0  
     length 6.63812  
     axis 0 0 20  XYZ
    dof rx ry rz
    limits (-160.0 20.0)
           (-70.0 70.0)
           (-60.0 70.0)
  end
  begin
     id 3 
     name ltibia
     direction 0.34202 -0.939693 0   
     length 7.51178   
     axis 0 0 20   XYZ
    dof rx
    limits (-10.0 170.0)
  end
  begin
     id 4 
     name lfoot
     direction 0.121251 -0.333133 0.935051   
     length 1.83716   
     axis -90 7.62852e-016 20   XYZ
    dof rx rz
    limits (-45.0 90.0)
           (-70.0 20.0)
  end
  begin
     id 5 
     name ltoes
     direction 1.53611e-011 -4.21962e-011 1   
     length 0.916133   
     axis -90 7.62852e-016 20   XYZ
    dof rx
    limits (-90.0 20.0)
  end
  begin
     id 6 
     name rhipjoint
     direction -0.692419 -0.660507 0.290321   
     length 2.55385  
     axis 0 0 0  XYZ 
  end
  begin
     id 7 
     name rfemur
     direction -0.34202 -0.939693 0   
     length 7.29079   
     axis 0 0 -20   XYZ
    dof rx ry rz
    limits (-160.0 20.0)
           (-70.0 70.0)
           (-70.0 60.0)
  end
  begin
     id 8 
     name rtibia
     direction -0.34202 -0.939693 0   
     length 7.47143   
     axis 0 0 -20   XYZ
    dof rx
    limits (-10.0 170.0)
 end
 begin
     id 9 
     name rfoot
     direction -0.119907 -0.329441 0.936532   
     length 1.79439  
     axis -90 -7.62852e-016 -20   XYZ
    dof rx rz
    limits (-45.0 90.0)
           (-20.0 70.0)
  end
  begin
     id 10 
     name rtoes
     direction -1.53571e-011 -4.21961e-011 1   
     length 0.896039   
     axis -90 -7.62852e-016 -20   XYZ
    dof rx
    limits (-90.0 20.0)
  end
  begin
     id 11 
     name lowerback
     direction 0.0367721 0.992912 -0.113016   
     length 1.73542   
     axis 0 0 0   XYZ
    dof rx ry rz
    limits (-20.0 45.0)
           (-30.0 30.0)
           (-30.0 30.0)
  end
  begin
     id 12 
     name upperback
     direction -0.000314626 0.990678 0.136227   
     length 1.7514   
     axis 0 0 0   XYZ
    dof rx ry rz
    limits (-20.0 45.0)
           (-30.0 30.0)
           (-30.0 30.0)
  end
  begin
     id 13 
     name thorax
     direction -0.0226159 0.981151 0.191917   
     length 1.71471   
     axis 0 0 0   XYZ
    dof rx ry rz
    limits (-20.0 45.0)
           (-30.0 30.0)
           (-30.0 30.0)
  end
  begin
     id 14 
     name lowerneck
     direction 0.0219333 0.998071 0.0580739   
     length 1.65882   
     axis 0 0 0   XYZ
    dof rx ry rz
    limits (-20.0 45.0)
           (-30.0 30.0)
           (-30.0 30.0)
  end
  begin
     id 15 
     name upperneck
     direction 0.0384529 0.980058 -0.194957   
     length 1.6612   
     axis 0 0 0   XYZ
    dof rx ry rz
    limits (-20.0 45.0)
           (-30.0 30.0)
           (-30.0 30.0)
  end
  begin
     id 16
     name head
     direction 0.00592123 0.997421 -0.0715234  
     length 1.68077  
     axis 0 0 0   XYZ
    dof rx ry rz
    limits (-20.0 45.0)
           (-30.0 30.0)
           (-30.0 30.0)
  end
  begin
     id 17 
     name lclavicle
     direction 0.904803 0.417826 0.0821728  
     length 3.42227  
     axis 0 0 0   XYZ
    dof ry rz
    limits (-20.0 10.0)
           (0.0 20.0)
  end
  begin
     id 18 
     name lhumerus
     direction 1 -4.48965e-011 -2.68786e-027   
     length 5.11878   
     axis -180 -30 -90   XYZ
    dof rx ry rz
    limits (-60.0 90.0)
           (-90.0 90.0)
           (-90.0 90.0)
  end
  begin
     id 19
     name lradius
     direction 1 -4.48965e-011 2.61168e-028   
     length 3.59971   
     axis -180 -30 -90   XYZ
    dof rx
    limits (-10.0 170.0)
  end
  begin
     id 20
     name lwrist
     direction 1 -4.48965e-011 1.58672e-027   
     length 1.79985   
     axis -1.65735e-015 90 90   XYZ
    dof ry
    limits (-180.0 0.0)
 end
  begin
     id 21 
     name lhand
     direction 1 -4.48942e-011 3.17344e-027   
     length 0.62877   
     axis -2.02492e-015 90 90   XYZ
    dof rx rz
    limits (-90.0 90.0)
           (-45.0 45.0)
  end
  begin
     id 22 
     name lfingers
     direction 1 -4.49011e-011 6.34687e-027   
     length 0.506931   
     axis -4.04985e-015 90 90   XYZ
    dof rx
    limits (0.0 90.0)
  end
  begin
     id 23
     name lthumb
     direction 0.707107 -6.34982e-011 0.707107   
     length 0.727854   
     axis -90 45 2.85299e-015   XYZ
    dof rx rz
    limits (-45.0 45.0)
           (-45.0 45.0)
  end
  begin
     id 24 
     name rclavicle
     direction -0.945647 0.32488 0.0143075   
     length 3.52737  
     axis 0 0 0   XYZ 
    dof ry rz
    limits (-10.0 20.0)
           (-20.0 0.0)
  end
  begin
     id 25 
     name rhumerus
     direction -1 -4.48962e-011 1.92182e-027  
     length 5.4902   
     axis -180 30 90   XYZ
    dof rx ry rz
    limits (-90.0 60.0)
           (-90.0 90.0)
           (-90.0 90.0)
  end
  begin
     id 26 
     name rradius
     direction -1 -4.48967e-011 -5.97193e-028   
     length 3.20659   
     axis -180 30 90   XYZ
    dof rx
    limits (-10.0 170.0)
  end
  begin
     id 27 
     name rwrist
     direction -1 -4.48964e-011 1.58672e-027   
     length 1.6033   
     axis -1.65735e-015 -90 -90   XYZ
    dof ry
    limits (-180.0 0.0)
  end
  begin
     id 28
     name rhand
     direction -1 -4.49006e-011 3.17344e-027   
     length 0.691885   
     axis -2.02492e-015 -90 -90   XYZ
    dof rx rz
    limits (-90.0 90.0)
           (-45.0 45.0)
  end
  begin
     id 29
     name rfingers
     direction -1 -4.48908e-011 6.34687e-027   
     length 0.557815   
     axis -4.04985e-015 -90 -90   XYZ
    dof rx
    limits (0.0 90.0)
  end
  begin
     id 30
     name rthumb
     direction -0.707107 -6.34999e-011 0.707107   
     length 0.800915   
     axis -90 -45 -2.85299e-015   XYZ
    dof rx rz
    limits (-45.0 45.0)
           (-45.0 45.0)
  end
:hierarchy
  begin
    root lhipjoint rhipjoint lowerback
    lhipjoint lfemur
    lfemur ltibia
    ltibia lfoot
    lfoot ltoes
    rhipjoint rfemur
    rfemur rtibia
    rtibia rfoot
    rfoot rtoes
    lowerback upperback
    upperback thorax
    thorax lowerneck lclavicle rclavicle
    lowerneck upperneck
    upperneck head
    lclavicle lhumerus
    lhumerus lradius
    lradius lwrist
    lwrist lhand lthumb
    lhand lfingers
    rclavicle rhumerus
    rhumerus rradius
    rradius rwrist
    rwrist rhand rthumb
    rhand rfingers
  end

#!OML:ASF I:\Actors\actors\Patient Classification 1\Patient 1\Session 1\Subject1.ASF
:FULLY-SPECIFIED
:DEGREES
1
root 0.0601348 18.5457 8.55615 9.94222 -3.72072 -7.79183
lowerback -3.13567 1.4469 4.80461
upperback -9.66458 2.24529 3.33594
thorax -8.38257 0.89621 0.753794
lowerneck -3.02026 -11.425 -14.2425
upperneck 24.939 -16.0513 5.88427
head 10.0969 -8.32139 2.63925
rclavicle -2.28602e-015 3.45885e-014
rhumerus -44.8204 -12.7114 -75.5556
rradius 25.1006
rwrist 38.514
rhand 9.35202 -35.1942
rfingers 7.12502
rthumb 34.5115 -61.863
lclavicle -2.28602e-015 3.45885e-014
lhumerus -47.8765 25.5939 72.3138
lradius 19.4775
lwrist -22.5444
lhand 5.38647 -7.65676
lfingers 7.12502
lthumb 30.7385 19.7942
rfemur 0 0 0
rtibia 0
rfoot 0 0
rtoes 0
lfemur -13.2148 -50.5514 -5.12418
ltibia 22.6906
lfoot -59.8516 47.7349
ltoes -48.0271
2
root 0.0561866 18.549 8.57141 9.97565 -3.48275 -7.85331
lowerback -3.16049 1.46565 4.89246
upperback -9.71131 2.27181 3.30235
thorax -8.41591 0.900574 0.669362
lowerneck -3.03559 -11.4868 -14.2241
upperneck 24.9803 -16.1554 5.93175
head 10.1292 -8.36272 2.63618
rclavicle -1.2424e-015 -8.94531e-015
rhumerus -44.8964 -12.8432 -75.5343
rradius 25.1075
rwrist 38.4244
rhand 9.5106 -35.1436
rfingers 7.12502
rthumb 34.662 -61.778
lclavicle -1.2424e-015 -8.94531e-015
lhumerus -47.7815 25.1535 72.7395
lradius 18.8221
lwrist -25.2142
lhand 0.289627 -9.45043
lfingers 7.12502
lthumb 25.8678 18.8102
rfemur 0 0 0
rtibia 0
rfoot 0 0
rtoes 0
lfemur -13.3056 -49.9508 -4.94467
ltibia 22.6877
lfoot -59.0231 47.231
ltoes -48.0612
3
root 0.0543664 18.5517 8.58507 10.0363 -3.23512 -7.90226
lowerback -3.20175 1.4668 4.98029
upperback -9.79467 2.27437 3.25231
thorax -8.48025 0.891328 0.569044
lowerneck -2.99636 -11.5701 -14.0699
upperneck 25.0357 -16.2897 5.87706
head 10.1376 -8.41788 2.57783
rclavicle -1.83379e-014 2.24627e-014
rhumerus -45.0696 -13.0861 -75.4727
rradius 25.2012
rwrist 38.4288
rhand 9.60875 -35.1544
rfingers 7.12502
rthumb 34.7552 -61.7673
lclavicle -1.83379e-014 2.24627e-014
lhumerus -47.8219 24.7386 73.0286
lradius 18.2556
lwrist -28.0508
lhand -4.63773 -10.7603
lfingers 7.12502
lthumb 21.1415 18.107
rfemur 0 0 0
rtibia 0
rfoot 0 0
rtoes 0
lfemur -13.4468 -49.4299 -4.73823
ltibia 22.6398
lfoot -58.0085 47.0537
ltoes -48.3169
4
root 0.0512186 18.5539 8.59666 10.1272 -3.01142 -7.975
lowerback -3.27284 1.43146 5.03686
upperback -9.87792 2.22864 3.26357
thorax -8.53224 0.863565 0.553498
lowerneck -3.00064 -11.6325 -13.9002
upperneck 25.0865 -16.3514 5.67798
head 10.1297 -8.45021 2.47551
rclavicle -1.46107e-014 -4.49253e-014
rhumerus -45.2256 -13.3735 -75.3503
rradius 25.3133
rwrist 38.6394
rhand 9.64645 -35.1467
rfingers 7.12502
rthumb 34.7909 -61.7513
lclavicle -1.46107e-014 -4.49253e-014
lhumerus -47.9381 24.4744 73.2265
lradius 17.7154
lwrist -31.0141
lhand -9.34997 -11.6793
lfingers 7.12502
lthumb 16.6095 17.63
rfemur 0 0 0
rtibia 0
rfoot 0 0
rtoes 0
lfemur -13.6224 -49.114 -4.4604
ltibia 22.5553
lfoot -57.2352 47.074
ltoes -48.6597
5
root 0.0400541 18.5579 8.60858 10.3861 -2.9787 -7.87893
lowerback -3.32451 1.44054 4.8094
upperback -10.1236 2.2469 3.25175
thorax -8.78185 0.884116 0.66879
lowerneck -2.89051 -11.6504 -13.9143
upperneck 25.1618 -16.3809 5.60745
head 10.1355 -8.4761 2.45495
rclavicle 2.06239e-014 2.28602e-014
rhumerus -45.4098 -13.3157 -75.3715
rradius 25.188
rwrist 38.6058
rhand 9.51288 -35.1774
rfingers 7.12502
rthumb 34.6642 -61.8113
lclavicle 2.06239e-014 2.28602e-014
lhumerus -48.2673 23.4042 74.1072
lradius 16.9041
lwrist -36.3428
lhand -18.6215 -11.4759
lfingers 7.12502
lthumb 7.67047 18.365
rfemur 0 0 0
rtibia 0
rfoot 0 0
rtoes 0
lfemur -13.9769 -48.9569 -4.20455
ltibia 22.4071
lfoot -57.0176 47.137
ltoes -48.8504
6
root 0.0284432 18.5615 8.62891 10.7158 -2.84975 -7.65074
lowerback -3.40373 1.43901 4.52327
upperback -10.4839 2.24916 3.16702
thorax -9.14416 0.896531 0.741207
lowerneck -2.6466 -11.6324 -14.1521
upperneck 25.2522 -16.4225 5.79395
head 10.1687 -8.50815 2.56086
rclavicle -2.56432e-014 2.60408e-014
rhumerus -45.6376 -12.8114 -75.6475
rradius 24.8976
rwrist 37.9977
rhand 9.1527 -35.2726
rfingers 7.12502
rthumb 34.3223 -61.9842
lclavicle -2.56432e-014 2.60408e-014
lhumerus -48.5577 22.8334 74.4003
lradius 17.1134
lwrist -35.9205
lhand -18.6705 -10.6955
lfingers 7.12502
lthumb 7.62323 19.1472
rfemur 0 0 0
rtibia 0
rfoot 0 0
rtoes 0
lfemur -14.4673 -48.8827 -3.97778
ltibia 22.2507
lfoot -56.8141 47.137
ltoes -48.9448
7
root 0.0256652 18.5616 8.65162 10.8049 -2.68365 -7.29815
lowerback -3.45429 1.41307 4.21043
upperback -10.6366 2.20501 3.04526
thorax -9.28934 0.89202 0.788897
lowerneck -2.44204 -11.626 -14.3243
upperneck 25.1581 -16.4662 5.98278
head 10.1353 -8.53259 2.65869
rclavicle -3.96575e-014 2.98177e-015
rhumerus -45.709 -12.4624 -75.8783
rradius 24.7716
rwrist 37.5297
rhand 8.97377 -35.2738
rfingers 7.12502
rthumb 34.1524 -62.0236
lclavicle -3.96575e-014 2.98177e-015
lhumerus -48.6818 22.5463 74.5762
lradius 17.2516
lwrist -35.7698
lhand -18.6142 -10.166
lfingers 7.12502
lthumb 7.67755 19.6746
rfemur 0 0 0
rtibia 0
rfoot 0 0
rtoes 0
lfemur -14.5631 -49.1667 -4.19603
ltibia 22.085
lfoot -56.9418 47.2036
ltoes -48.9328
8
root 0.0252582 18.5612 8.66956 10.8077 -2.53701 -7.26837
lowerback -3.49853 1.40079 4.19998
upperback -10.6554 2.18602 3.03378
thorax -9.28454 0.883209 0.784313
lowerneck -2.24134 -11.6364 -14.4076
upperneck 24.9267 -16.5162 6.12004
head 10.0399 -8.55589 2.72726
rclavicle 3.97569e-015 -1.66979e-014
rhumerus -45.6464 -12.3811 -75.9668
rradius 24.734
rwrist 37.4612
rhand 8.96141 -35.1863
rfingers 7.12502
rthumb 34.1406 -61.9387
lclavicle 3.97569e-015 -1.66979e-014
lhumerus -48.6432 22.45 74.6867
lradius 17.2807
lwrist -35.6488
lhand -18.5353 -9.93302
lfingers 7.12502
lthumb 7.75369 19.9048
rfemur 0 0 0
rtibia 0
rfoot 0 0
rtoes 0
lfemur -14.5109 -49.3112 -4.21863
ltibia 22.003
lfoot -56.9843 47.2749
ltoes -49.0281
9
root 0.0199837 18.5626 8.68792 10.9496 -2.35058 -7.20498
lowerback -3.69093 1.36381 4.04383
upperback -10.732 2.12569 3.04598
thorax -9.26333 0.867787 0.890868
lowerneck -2.125 -11.668 -14.4201
upperneck 24.8444 -16.5644 6.09856
head 9.99366 -8.58459 2.72365
rclavicle -7.65321e-015 -8.94531e-015
rhumerus -45.6475 -12.3854 -75.9702
rradius 24.7125
rwrist 37.5352
rhand 8.98234 -35.1238
rfingers 7.12502
rthumb 34.1605 -61.8718
lclavicle -7.65321e-015 -8.94531e-015
lhumerus -48.6412 22.3282 74.8073
lradius 17.2751
lwrist -35.4652
lhand -18.6953 -9.88924
lfingers 7.12502
lthumb 7.59926 19.9542
rfemur 0 0 0
rtibia 0
rfoot 0 0
rtoes 0
lfemur -14.7821 -49.3543 -4.07277
ltibia 22.0878
lfoot -56.9225 47.2469
ltoes -49.13
10
root 0.0229978 18.5612 8.69936 10.8911 -2.21649 -7.48467
lowerback -3.53923 1.36948 4.37422
upperback -10.7641 2.15767 3.11517
thorax -9.38456 0.857209 0.77728
lowerneck -2.098 -11.6941 -14.3682
upperneck 24.8617 -16.5963 6.03435
head 9.98786 -8.60158 2.69136
rclavicle 1.37658e-014 4.1546e-014
rhumerus -45.6797 -12.3947 -75.9752
rradius 24.732
rwrist 37.6509
rhand 8.98644 -35.0478
rfingers 7.12502
rthumb 34.1644 -61.795
lclavicle 1.37658e-014 4.1546e-014
lhumerus -48.6674 22.2812 74.8454
lradius 17.2742
lwrist -35.3952
lhand -18.7684 -9.93578
lfingers 7.12502
lthumb 7.52874 19.9102
rfemur 0 0 0
rtibia 0
rfoot 0 0
rtoes 0
lfemur -14.7269 -49.5267 -3.85821
ltibia 22.2641
lfoot -57.1269 47.1938
ltoes -49.137
11
root 0.0259591 18.5587 8.73236 11.0283 -1.71968 -8.25663
lowerback -3.95984 1.3402 5.32074
upperback -10.7513 2.1139 3.28111
thorax -9.11267 0.769498 0.440463
lowerneck -2.08975 -11.6996 -14.4381
upperneck 24.8474 -16.6443 6.21818
head 10.01 -8.61314 2.75803
rclavicle 3.926e-015 9.14409e-015
rhumerus -45.6196 -12.2392 -76.1488
rradius 24.7582
rwrist 37.5388
rhand 8.8599 -35.0145
rfingers 7.12502
rthumb 34.0442 -61.7884
lclavicle 3.926e-015 9.14409e-015
lhumerus -48.6003 22.2611 74.8492
lradius 17.236
lwrist -35.4283
lhand -18.7316 -10.0001
lfingers 7.12502
lthumb 7.56421 19.8446
rfemur 0 0 0
rtibia 0
rfoot 0 0
rtoes 0
lfemur -15.0135 -49.5528 -2.84431
ltibia 22.5105
lfoot -56.7343 47.2996
ltoes -49.5897
12
root 0.0285981 18.5599 8.75492 11.1314 -1.49868 -8.36461
lowerback -4.22985 1.36074 5.5321
upperback -10.7352 2.11959 3.26044
thorax -8.93133 0.757891 0.306688
lowerneck -2.06836 -11.7129 -14.5304
upperneck 24.7615 -16.7002 6.42069
head 10.0087 -8.62853 2.83506
rclavicle -1.95803e-014 -1.27222e-014
rhumerus -45.494 -12.0454 -76.381
rradius 24.8098
rwrist 37.28
rhand 8.90855 -35.1132
rfingers 7.12502
rthumb 34.0904 -61.8769
lclavicle -1.95803e-014 -1.27222e-014
lhumerus -48.4569 22.1286 74.9591
lradius 17.1922
lwrist -35.403
lhand -18.8252 -10.1091
lfingers 7.12502
lthumb 7.47388 19.7389
rfemur 0 0 0
rtibia 0
rfoot 0 0
rtoes 0
lfemur -15.2833 -49.6362 -2.61819
ltibia 22.7842
lfoot -56.6475 47.4011
ltoes -49.8997
13
root 0.0331284 18.5593 8.76753 11.1042 -1.30185 -8.68541
lowerback -4.1854 1.36423 5.97552
upperback -10.728 2.13783 3.31978
thorax -8.9443 0.733088 0.123551
lowerneck -2.04968 -11.7328 -14.4848
upperneck 24.6972 -16.7204 6.38522
head 9.97652 -8.63721 2.8158
rclavicle -1.2921e-014 -5.88403e-014
rhumerus -45.4122 -11.9396 -76.4867
rradius 24.8823
rwrist 37.1861
rhand 9.0851 -35.1633
rfingers 7.12502
rthumb 34.2581 -61.8894
lclavicle -1.2921e-014 -5.88403e-014
lhumerus -48.4014 21.9365 75.1591
lradius 17.2434
lwrist -35.1658
lhand -18.8934 -10.0564
lfingers 7.12502
lthumb 7.40806 19.7939
rfemur 0 0 0
rtibia 0
rfoot 0 0
rtoes 0
lfemur -15.3226 -49.5826 -2.31572
ltibia 23.0084
lfoot -56.4759 47.3492
ltoes -50.1066
